<svg width="21" height="21" viewBox="0 0 21 21" fill="none" xmlns="http://www.w3.org/2000/svg">
<path d="M21 4.66667V18.6667C21 19.3083 20.7715 19.8576 20.3146 20.3146C19.8576 20.7715 19.3083 21 18.6667 21H2.33333C1.69167 21 1.14236 20.7715 0.685417 20.3146C0.228472 19.8576 0 19.3083 0 18.6667V2.33333C0 1.69167 0.228472 1.14236 0.685417 0.685417C1.14236 0.228472 1.69167 0 2.33333 0H16.3333L21 4.66667ZM18.6667 5.65833L15.3417 2.33333H2.33333V18.6667H18.6667V5.65833ZM10.5 17.5C11.4722 17.5 12.2986 17.1597 12.9792 16.4792C13.6597 15.7986 14 14.9722 14 14C14 13.0278 13.6597 12.2014 12.9792 11.5208C12.2986 10.8403 11.4722 10.5 10.5 10.5C9.52778 10.5 8.70139 10.8403 8.02083 11.5208C7.34028 12.2014 7 13.0278 7 14C7 14.9722 7.34028 15.7986 8.02083 16.4792C8.70139 17.1597 9.52778 17.5 10.5 17.5ZM3.5 8.16667H14V3.5H3.5V8.16667ZM2.33333 5.65833V18.6667V2.33333V5.65833Z" fill="#0FBA7E"/>
</svg>
