<svg width="21" height="19" viewBox="0 0 21 19" fill="none" xmlns="http://www.w3.org/2000/svg">
<path d="M19.9058 8.49722V16.8889C19.9058 17.4694 19.7012 17.9664 19.2919 18.3799C18.8825 18.7933 18.3905 19 17.8157 19H3.18434C2.60954 19 2.11747 18.7933 1.70814 18.3799C1.29881 17.9664 1.09415 17.4694 1.09415 16.8889V8.49722C0.69353 8.12778 0.384357 7.65278 0.166629 7.07222C-0.0510994 6.49167 -0.055454 5.85833 0.153565 5.17222L1.25091 1.58333C1.39026 1.12593 1.63847 0.747685 1.99554 0.448611C2.35262 0.149537 2.7663 0 3.23659 0H17.7634C18.2337 0 18.643 0.145139 18.9914 0.435417C19.3398 0.725694 19.5923 1.10833 19.7491 1.58333L20.8464 5.17222C21.0555 5.85833 21.0511 6.48287 20.8334 7.04583C20.6156 7.6088 20.3065 8.09259 19.9058 8.49722ZM12.7992 7.38889C13.2695 7.38889 13.6266 7.22616 13.8704 6.90069C14.1143 6.57523 14.2101 6.21019 14.1578 5.80556L13.583 2.11111H11.5451V6.01667C11.5451 6.38611 11.667 6.70718 11.9109 6.97986C12.1547 7.25255 12.4508 7.38889 12.7992 7.38889ZM8.09628 7.38889C8.4969 7.38889 8.82349 7.25255 9.07606 6.97986C9.32862 6.70718 9.45491 6.38611 9.45491 6.01667V2.11111H7.41697L6.84217 5.80556C6.7725 6.22778 6.86394 6.59722 7.11651 6.91389C7.36907 7.23056 7.69566 7.38889 8.09628 7.38889ZM3.44561 7.38889C3.75914 7.38889 4.03348 7.27454 4.26862 7.04583C4.50377 6.81713 4.64747 6.52685 4.69973 6.175L5.27453 2.11111H3.23659L2.1915 5.64722C2.08699 5.99907 2.1436 6.37731 2.36133 6.78194C2.57905 7.18657 2.94048 7.38889 3.44561 7.38889ZM17.5544 7.38889C18.0595 7.38889 18.4253 7.18657 18.6517 6.78194C18.8782 6.37731 18.9304 5.99907 18.8085 5.64722L17.7112 2.11111H15.7255L16.3003 6.175C16.3525 6.52685 16.4962 6.81713 16.7314 7.04583C16.9665 7.27454 17.2409 7.38889 17.5544 7.38889ZM3.18434 16.8889H17.8157V9.44722C17.7286 9.48241 17.672 9.5 17.6458 9.5H17.5544C17.0841 9.5 16.6704 9.42083 16.3133 9.2625C15.9563 9.10417 15.6035 8.84907 15.2552 8.49722C14.9417 8.81389 14.5846 9.06018 14.184 9.23611C13.7833 9.41204 13.3566 9.5 12.9037 9.5C12.4334 9.5 11.9936 9.41204 11.5843 9.23611C11.175 9.06018 10.8135 8.81389 10.5 8.49722C10.2039 8.81389 9.85988 9.06018 9.46797 9.23611C9.07606 9.41204 8.65367 9.5 8.20079 9.5C7.69566 9.5 7.23843 9.41204 6.82911 9.23611C6.41978 9.06018 6.05835 8.81389 5.74482 8.49722C5.37904 8.86667 5.01761 9.12616 4.66053 9.27569C4.30346 9.42523 3.89849 9.5 3.44561 9.5H3.32804C3.28449 9.5 3.23659 9.48241 3.18434 9.44722V16.8889Z" fill="#0FBA7E"/>
</svg>
